<svg width="83" height="83" viewBox="0 0 83 83" fill="none" xmlns="http://www.w3.org/2000/svg">
<path d="M78.315 20.9899C77.9523 20.5125 77.484 20.1254 76.9469 19.8588C76.4098 19.5922 75.8184 19.4534 75.2188 19.4531H19.5277L16.7167 9.33426C16.4893 8.51493 15.9996 7.79268 15.3228 7.278C14.6459 6.76332 13.8191 6.48457 12.9688 6.48438H6.48438C5.45252 6.48438 4.46292 6.89428 3.73329 7.62391C3.00365 8.35355 2.59375 9.34314 2.59375 10.375C2.59375 11.4069 3.00365 12.3965 3.73329 13.1261C4.46292 13.8557 5.45252 14.2656 6.48438 14.2656H10.0119L21.1326 54.3034C21.668 56.2141 22.8129 57.8977 24.3931 59.098C25.9732 60.2983 27.9021 60.9497 29.8865 60.9531H61.9258C63.9101 60.9497 65.8391 60.2983 67.4192 59.098C68.9993 57.8977 70.1442 56.2141 70.6797 54.3034L78.9894 24.3845C79.1466 23.805 79.1675 23.197 79.0505 22.6081C78.9335 22.0192 78.6818 21.4653 78.315 20.9899ZM63.1578 52.2219C63.0828 52.4922 62.9222 52.7309 62.7001 52.9021C62.4779 53.0734 62.2063 53.1681 61.9258 53.1719H29.88C29.5967 53.1716 29.3214 53.0785 29.096 52.907C28.8706 52.7355 28.7075 52.4948 28.6318 52.2219L21.6902 27.2344H70.0993L63.1578 52.2219ZM35.0156 71.3281C35.0156 72.6106 34.6353 73.8643 33.9228 74.9307C33.2103 75.997 32.1976 76.8281 31.0127 77.3189C29.8278 77.8097 28.5241 77.9381 27.2662 77.6879C26.0084 77.4377 24.853 76.8201 23.9461 75.9133C23.0392 75.0064 22.4217 73.851 22.1715 72.5932C21.9213 71.3353 22.0497 70.0315 22.5405 68.8467C23.0313 67.6618 23.8624 66.6491 24.9287 65.9366C25.9951 65.2241 27.2488 64.8438 28.5312 64.8438C30.251 64.8438 31.9003 65.5269 33.1164 66.743C34.3325 67.959 35.0156 69.6084 35.0156 71.3281ZM68.7344 71.3281C68.7344 72.6106 68.3541 73.8643 67.6416 74.9307C66.929 75.997 65.9163 76.8281 64.7315 77.3189C63.5466 77.8097 62.2428 77.9381 60.985 77.6879C59.7271 77.4377 58.5717 76.8201 57.6649 75.9133C56.758 75.0064 56.1404 73.851 55.8902 72.5932C55.64 71.3353 55.7684 70.0315 56.2592 68.8467C56.75 67.6618 57.5811 66.6491 58.6475 65.9366C59.7138 65.2241 60.9675 64.8438 62.25 64.8438C63.9698 64.8438 65.6191 65.5269 66.8351 66.743C68.0512 67.959 68.7344 69.6084 68.7344 71.3281Z" fill="#219EBC"/>
</svg>
